<?plantuml 1.2026.2?><svg xmlns="http://www.w3.org/2000/svg" xmlns:xlink="http://www.w3.org/1999/xlink" contentStyleType="text/css" data-diagram-type="SEQUENCE" height="628px" preserveAspectRatio="none" style="width:1000px;height:628px;" version="1.1" viewBox="0 0 1000 628" width="1000px" zoomAndPan="magnify"><defs/><g><g><title>engine . BacktestEngine</title><rect fill="#FFFFFF" height="495.3789" style="stroke:#181818;stroke-width:1;" width="10" x="154.377" y="108.5977"/></g><g><title>data_handler . IDataHandler</title><rect fill="#FFFFFF" height="27.7988" style="stroke:#181818;stroke-width:1;" width="10" x="337.0996" y="136.3965"/></g><g><title>strategy . IStrategy</title><rect fill="#FFFFFF" height="75.3965" style="stroke:#181818;stroke-width:1;" width="10" x="486.8389" y="191.9941"/></g><g><title>portfolio . Portfolio</title><rect fill="#FFFFFF" height="280.9883" style="stroke:#181818;stroke-width:1;" width="10" x="609.5518" y="295.1895"/></g><g><title>friction_model . IFrictionModel</title><rect fill="#FFFFFF" height="75.3965" style="stroke:#181818;stroke-width:1;" width="10" x="811.9541" y="377.5859"/></g><g class="participant-lifeline" data-entity-uid="part1" data-qualified-name="User" id="part1-lifeline"><g><title>User</title><rect fill="#000000" fill-opacity="0.00000" height="543.1777" width="8" x="16.668" y="78.7988"/><line style="stroke:#181818;stroke-width:0.5;stroke-dasharray:5,5;" x1="20" x2="20" y1="78.7988" y2="621.9766"/></g></g><g class="participant-lifeline" data-entity-uid="part2" data-qualified-name="Engine" id="part2-lifeline"><g><title>engine . BacktestEngine</title><rect fill="#000000" fill-opacity="0.00000" height="543.1777" width="8" x="155.377" y="78.7988"/><line style="stroke:#181818;stroke-width:0.5;stroke-dasharray:5,5;" x1="158.666" x2="158.666" y1="78.7988" y2="621.9766"/></g></g><g class="participant-lifeline" data-entity-uid="part3" data-qualified-name="DataHandler" id="part3-lifeline"><g><title>data_handler . IDataHandler</title><rect fill="#000000" fill-opacity="0.00000" height="543.1777" width="8" x="338.0996" y="78.7988"/><line style="stroke:#181818;stroke-width:0.5;stroke-dasharray:5,5;" x1="341.7158" x2="341.7158" y1="78.7988" y2="621.9766"/></g></g><g class="participant-lifeline" data-entity-uid="part4" data-qualified-name="Strategy" id="part4-lifeline"><g><title>strategy . IStrategy</title><rect fill="#000000" fill-opacity="0.00000" height="543.1777" width="8" x="487.8389" y="78.7988"/><line style="stroke:#181818;stroke-width:0.5;stroke-dasharray:5,5;" x1="491.4834" x2="491.4834" y1="78.7988" y2="621.9766"/></g></g><g class="participant-lifeline" data-entity-uid="part5" data-qualified-name="Portfolio" id="part5-lifeline"><g><title>portfolio . Portfolio</title><rect fill="#000000" fill-opacity="0.00000" height="543.1777" width="8" x="610.5518" y="78.7988"/><line style="stroke:#181818;stroke-width:0.5;stroke-dasharray:5,5;" x1="614.1943" x2="614.1943" y1="78.7988" y2="621.9766"/></g></g><g class="participant-lifeline" data-entity-uid="part6" data-qualified-name="Friction" id="part6-lifeline"><g><title>friction_model . IFrictionModel</title><rect fill="#000000" fill-opacity="0.00000" height="543.1777" width="8" x="812.9541" y="78.7988"/><line style="stroke:#181818;stroke-width:0.5;stroke-dasharray:5,5;" x1="816.9238" x2="816.9238" y1="78.7988" y2="621.9766"/></g></g><g class="participant participant-head" data-entity-uid="part1" data-qualified-name="User" id="part1-head"><text fill="#000000" font-family="Arial" font-size="12" lengthAdjust="spacing" textLength="25.3359" x="5" y="76.2559">User</text><ellipse cx="20.668" cy="13.5" fill="#E2E2F0" rx="8" ry="8" style="stroke:#181818;stroke-width:0.5;"/><path d="M20.668,21.5 L20.668,48.5 M7.668,29.5 L33.668,29.5 M20.668,48.5 L7.668,63.5 M20.668,48.5 L33.668,63.5" fill="none" style="stroke:#181818;stroke-width:0.5;"/></g><g class="participant participant-head" data-entity-uid="part2" data-qualified-name="Engine" id="part2-head"><rect fill="#E2E2F0" height="27.7988" rx="2.5" ry="2.5" style="stroke:#181818;stroke-width:0.5;" width="143.4219" x="87.666" y="50"/><text fill="#000000" font-family="Arial" font-size="12" lengthAdjust="spacing" textLength="129.4219" x="94.666" y="68.2559">engine : BacktestEngine</text></g><g class="participant participant-head" data-entity-uid="part3" data-qualified-name="DataHandler" id="part3-head"><rect fill="#E2E2F0" height="27.7988" rx="2.5" ry="2.5" style="stroke:#181818;stroke-width:0.5;" width="164.7676" x="259.7158" y="50"/><text fill="#000000" font-family="Arial" font-size="12" lengthAdjust="spacing" textLength="150.7676" x="266.7158" y="68.2559">data_handler : IDataHandler</text></g><g class="participant participant-head" data-entity-uid="part4" data-qualified-name="Strategy" id="part4-head"><rect fill="#E2E2F0" height="27.7988" rx="2.5" ry="2.5" style="stroke:#181818;stroke-width:0.5;" width="114.7109" x="434.4834" y="50"/><text fill="#000000" font-family="Arial" font-size="12" lengthAdjust="spacing" textLength="100.7109" x="441.4834" y="68.2559">strategy : IStrategy</text></g><g class="participant participant-head" data-entity-uid="part5" data-qualified-name="Portfolio" id="part5-head"><rect fill="#E2E2F0" height="27.7988" rx="2.5" ry="2.5" style="stroke:#181818;stroke-width:0.5;" width="110.7148" x="559.1943" y="50"/><text fill="#000000" font-family="Arial" font-size="12" lengthAdjust="spacing" textLength="96.7148" x="566.1943" y="68.2559">portfolio : Portfolio</text></g><g class="participant participant-head" data-entity-uid="part6" data-qualified-name="Friction" id="part6-head"><rect fill="#E2E2F0" height="27.7988" rx="2.5" ry="2.5" style="stroke:#181818;stroke-width:0.5;" width="174.0605" x="729.9238" y="50"/><text fill="#000000" font-family="Arial" font-size="12" lengthAdjust="spacing" textLength="160.0605" x="736.9238" y="68.2559">friction_model : IFrictionModel</text></g><g><title>engine . BacktestEngine</title><rect fill="#FFFFFF" height="495.3789" style="stroke:#181818;stroke-width:1;" width="10" x="154.377" y="108.5977"/></g><g><title>data_handler . IDataHandler</title><rect fill="#FFFFFF" height="27.7988" style="stroke:#181818;stroke-width:1;" width="10" x="337.0996" y="136.3965"/></g><g><title>strategy . IStrategy</title><rect fill="#FFFFFF" height="75.3965" style="stroke:#181818;stroke-width:1;" width="10" x="486.8389" y="191.9941"/></g><g><title>portfolio . Portfolio</title><rect fill="#FFFFFF" height="280.9883" style="stroke:#181818;stroke-width:1;" width="10" x="609.5518" y="295.1895"/></g><g><title>friction_model . IFrictionModel</title><rect fill="#FFFFFF" height="75.3965" style="stroke:#181818;stroke-width:1;" width="10" x="811.9541" y="377.5859"/></g><g class="message" data-entity-1="part1" data-entity-2="part2" id="msg1"><polygon fill="#181818" points="142.377,104.5977,152.377,108.5977,142.377,112.5977,146.377,108.5977" style="stroke:#181818;stroke-width:1;"/><line style="stroke:#181818;stroke-width:1;" x1="20.668" x2="148.377" y1="108.5977" y2="108.5977"/><text fill="#000000" font-family="Arial" font-size="12" lengthAdjust="spacing" textLength="114.709" x="27.668" y="104.0547">run_backtest(symbol)</text></g><g class="message" data-entity-1="part2" data-entity-2="part3" id="msg2"><polygon fill="#181818" points="325.0996,132.3965,335.0996,136.3965,325.0996,140.3965,329.0996,136.3965" style="stroke:#181818;stroke-width:1;"/><line style="stroke:#181818;stroke-width:1;" x1="164.377" x2="331.0996" y1="136.3965" y2="136.3965"/><text fill="#000000" font-family="Arial" font-size="12" lengthAdjust="spacing" textLength="98.7188" x="171.377" y="131.8535">load_data(symbol)</text></g><g class="message" data-entity-1="part3" data-entity-2="part2" id="msg3"><polygon fill="#181818" points="175.377,160.1953,165.377,164.1953,175.377,168.1953,171.377,164.1953" style="stroke:#181818;stroke-width:1;"/><line style="stroke:#181818;stroke-width:1;stroke-dasharray:2,2;" x1="169.377" x2="341.0996" y1="164.1953" y2="164.1953"/><text fill="#000000" font-family="Arial" font-size="12" lengthAdjust="spacing" textLength="148.7227" x="181.377" y="159.6523">DataFrame (historical_data)</text></g><g class="message" data-entity-1="part2" data-entity-2="part4" id="msg4"><polygon fill="#181818" points="474.8389,187.9941,484.8389,191.9941,474.8389,195.9941,478.8389,191.9941" style="stroke:#181818;stroke-width:1;"/><line style="stroke:#181818;stroke-width:1;" x1="164.377" x2="480.8389" y1="191.9941" y2="191.9941"/><text fill="#000000" font-family="Arial" font-size="12" lengthAdjust="spacing" textLength="176.7598" x="171.377" y="187.4512">calculate_signals(historical_data)</text></g><path d="M501,204.9941 L501,241.9941 L666,241.9941 L666,214.9941 L656,204.9941 L501,204.9941" fill="#FEFFDD" style="stroke:#181818;stroke-width:0.5;"/><path d="M656,204.9941 L656,214.9941 L666,214.9941 L656,204.9941" fill="#FEFFDD" style="stroke:#181818;stroke-width:0.5;"/><text fill="#000000" font-family="Arial" font-size="12" lengthAdjust="spacing" textLength="116.7305" x="507" y="221.25">Vectorized calculation</text><text fill="#000000" font-family="Arial" font-size="12" lengthAdjust="spacing" textLength="144.7031" x="507" y="235.0488">O(1) asymptotic complexity</text><g class="message" data-entity-1="part4" data-entity-2="part2" id="msg5"><polygon fill="#181818" points="175.377,263.3906,165.377,267.3906,175.377,271.3906,171.377,267.3906" style="stroke:#181818;stroke-width:1;"/><line style="stroke:#181818;stroke-width:1;stroke-dasharray:2,2;" x1="169.377" x2="490.8389" y1="267.3906" y2="267.3906"/><text fill="#000000" font-family="Arial" font-size="12" lengthAdjust="spacing" textLength="82.6934" x="181.377" y="262.8477">Series (signals)</text></g><g class="message" data-entity-1="part2" data-entity-2="part5" id="msg6"><polygon fill="#181818" points="597.5518,291.1895,607.5518,295.1895,597.5518,299.1895,601.5518,295.1895" style="stroke:#181818;stroke-width:1;"/><line style="stroke:#181818;stroke-width:1;" x1="164.377" x2="603.5518" y1="295.1895" y2="295.1895"/><text fill="#000000" font-family="Arial" font-size="12" lengthAdjust="spacing" textLength="240.7969" x="171.377" y="290.6465">update_from_signals(signals, historical_data)</text></g><g class="message" data-entity-1="part5" data-entity-2="part5" id="msg7"><line style="stroke:#181818;stroke-width:1;" x1="619.5518" x2="661.5518" y1="336.7871" y2="336.7871"/><line style="stroke:#181818;stroke-width:1;" x1="661.5518" x2="661.5518" y1="336.7871" y2="349.7871"/><line style="stroke:#181818;stroke-width:1;" x1="620.5518" x2="661.5518" y1="349.7871" y2="349.7871"/><polygon fill="#181818" points="630.5518,345.7871,620.5518,349.7871,630.5518,353.7871,626.5518,349.7871" style="stroke:#181818;stroke-width:1;"/><text fill="#000000" font-family="Arial" font-size="12" lengthAdjust="spacing" textLength="123.3867" x="626.5518" y="318.4453">Calculate gross returns</text><text fill="#000000" font-family="Arial" font-size="12" lengthAdjust="spacing" textLength="136.0605" x="626.5518" y="332.2441">(shifted_signals * returns)</text></g><g class="message" data-entity-1="part5" data-entity-2="part6" id="msg8"><polygon fill="#181818" points="799.9541,373.5859,809.9541,377.5859,799.9541,381.5859,803.9541,377.5859" style="stroke:#181818;stroke-width:1;"/><line style="stroke:#181818;stroke-width:1;" x1="619.5518" x2="805.9541" y1="377.5859" y2="377.5859"/><text fill="#000000" font-family="Arial" font-size="12" lengthAdjust="spacing" textLength="173.4023" x="626.5518" y="373.043">calculate_friction(prices, signals)</text></g><path d="M826,390.5859 L826,427.5859 L993,427.5859 L993,400.5859 L983,390.5859 L826,390.5859" fill="#FEFFDD" style="stroke:#181818;stroke-width:0.5;"/><path d="M983,390.5859 L983,400.5859 L993,400.5859 L983,390.5859" fill="#FEFFDD" style="stroke:#181818;stroke-width:0.5;"/><text fill="#000000" font-family="Arial" font-size="12" lengthAdjust="spacing" textLength="146.0742" x="832" y="406.8418">Evaluates transaction costs</text><text fill="#000000" font-family="Arial" font-size="12" lengthAdjust="spacing" textLength="53.3496" x="832" y="420.6406">vectorially</text><g class="message" data-entity-1="part6" data-entity-2="part5" id="msg9"><polygon fill="#181818" points="630.5518,448.9824,620.5518,452.9824,630.5518,456.9824,626.5518,452.9824" style="stroke:#181818;stroke-width:1;"/><line style="stroke:#181818;stroke-width:1;stroke-dasharray:2,2;" x1="624.5518" x2="815.9541" y1="452.9824" y2="452.9824"/><text fill="#000000" font-family="Arial" font-size="12" lengthAdjust="spacing" textLength="73.3477" x="636.5518" y="448.4395">Series (costs)</text></g><g class="message" data-entity-1="part5" data-entity-2="part5" id="msg10"><line style="stroke:#181818;stroke-width:1;" x1="619.5518" x2="661.5518" y1="494.5801" y2="494.5801"/><line style="stroke:#181818;stroke-width:1;" x1="661.5518" x2="661.5518" y1="494.5801" y2="507.5801"/><line style="stroke:#181818;stroke-width:1;" x1="620.5518" x2="661.5518" y1="507.5801" y2="507.5801"/><polygon fill="#181818" points="630.5518,503.5801,620.5518,507.5801,630.5518,511.5801,626.5518,507.5801" style="stroke:#181818;stroke-width:1;"/><text fill="#000000" font-family="Arial" font-size="12" lengthAdjust="spacing" textLength="112.7285" x="626.5518" y="476.2383">Compute net_returns</text><text fill="#000000" font-family="Arial" font-size="12" lengthAdjust="spacing" textLength="120.0293" x="626.5518" y="490.0371">(gross_returns - costs)</text></g><g class="message" data-entity-1="part5" data-entity-2="part5" id="msg11"><line style="stroke:#181818;stroke-width:1;" x1="619.5518" x2="661.5518" y1="535.3789" y2="535.3789"/><line style="stroke:#181818;stroke-width:1;" x1="661.5518" x2="661.5518" y1="535.3789" y2="548.3789"/><line style="stroke:#181818;stroke-width:1;" x1="620.5518" x2="661.5518" y1="548.3789" y2="548.3789"/><polygon fill="#181818" points="630.5518,544.3789,620.5518,548.3789,630.5518,552.3789,626.5518,548.3789" style="stroke:#181818;stroke-width:1;"/><text fill="#000000" font-family="Arial" font-size="12" lengthAdjust="spacing" textLength="120.7266" x="626.5518" y="530.8359">Cumprod equity_curve</text></g><g class="message" data-entity-1="part5" data-entity-2="part2" id="msg12"><polygon fill="#181818" points="175.377,572.1777,165.377,576.1777,175.377,580.1777,171.377,576.1777" style="stroke:#181818;stroke-width:1;"/><line style="stroke:#181818;stroke-width:1;stroke-dasharray:2,2;" x1="169.377" x2="613.5518" y1="576.1777" y2="576.1777"/><text fill="#000000" font-family="Arial" font-size="12" lengthAdjust="spacing" textLength="22.0137" x="181.377" y="571.6348">void</text></g><g class="message" data-entity-1="part2" data-entity-2="part1" id="msg13"><polygon fill="#181818" points="31.668,599.9766,21.668,603.9766,31.668,607.9766,27.668,603.9766" style="stroke:#181818;stroke-width:1;"/><line style="stroke:#181818;stroke-width:1;stroke-dasharray:2,2;" x1="25.668" x2="158.377" y1="603.9766" y2="603.9766"/><text fill="#000000" font-family="Arial" font-size="12" lengthAdjust="spacing" textLength="22.0137" x="37.668" y="599.4336">void</text></g><?plantuml-src TLDDRzim3BthLn0zESDoQ8yv3DZQ1jkXMu5WEnKm58jEXCgYfu-WsQyVxLYAt3GdczHxJ-GZvL-rxQMJ7JnWAwC9QxBXf-mGlZejZV0VdM_qFuJRk-BmcsnUTuwYLVTao45mqde-GXl4NYk4bYXiwKq88Pl0WDyUdM10q8tkfGrmWtQdBS9gr0hem-EOk07fuVGxnoiPPBsNLXbqpFhnmF7tKpXoYdXEz5nSmDrn86sc_v6HWZcy9nTQCfeO_vp-HtoEveJMwIPeidL72irmothAF0s9aPeoGWn6mFBBr2AZNRJrThAWyiTkIsOncAOFN5noGanm9XPzCjkGLFLWpIMrDAGaBSlRXuEr6-PVxRNdIUb6cb5m8HH-g5NKiZbRoxGc6evghtTM6d-fbzMoyPOuSdgt3q1jJg_W3mvBmrkdiYwRzs9_LRSBjlFOzO5u0D1Grnjyq-4eSYcpzZReD7gefffcFUKgYeQUY-77NWtjj8wwtDFq_GpNcpjlYJYhlPE-JsO1FoBlmM68pleNM_czRWEgT25yIcUBkLfQg9dpQHEhdd-Ggynjv-ho8iwjJ-aLF1waYOpqfpSjJxSqv0ENTpZDHHfp5Bc2vRlcakSZP-Ru-HLSTuOd6XbgCTHdLqQNKWnBcAIlgyIkTwG0_qRUZRg9xe0bkboH0sbL5bdCB-q5myTdUmcUdkT_?></g></svg>